<?xml version="1.0" encoding="UTF-8"?>
<svg version="1.1" xmlns="http://www.w3.org/2000/svg" width="512" height="512">
<path d="M0 0 C0.84689308 -0.00453111 1.69378615 -0.00906223 2.56634265 -0.01373065 C5.39111182 -0.02634421 8.21568743 -0.02475623 11.04048157 -0.02310181 C13.0712814 -0.02908903 15.10207896 -0.03589503 17.13287354 -0.04345703 C22.64136573 -0.06110636 28.14979577 -0.06581202 33.65831351 -0.0670886 C37.10328868 -0.06851159 40.54824812 -0.07278402 43.99321938 -0.07808304 C56.02167893 -0.09658116 68.0500942 -0.10475409 80.0785675 -0.10317993 C91.2740012 -0.10197923 102.4692419 -0.12306831 113.66462678 -0.15466726 C123.28951345 -0.18086106 132.91433723 -0.19154589 142.53925925 -0.19026911 C148.28188445 -0.18976031 154.02433816 -0.19539812 159.76692772 -0.21662521 C165.17197408 -0.23605931 170.57668628 -0.23609663 175.98174477 -0.22159195 C177.95854813 -0.21950904 179.9353727 -0.22417365 181.91213989 -0.23631287 C199.11980095 -0.33508686 212.7711724 2.45099069 226.02998352 14.32992554 C238.09757891 27.35711285 240.83537696 43.09303886 240.68305969 60.34115601 C240.68221054 61.68310527 240.68269416 63.02505593 240.68438721 64.36700439 C240.68523738 67.96122864 240.6677732 71.55514392 240.64666533 75.14929724 C240.62773257 78.92353026 240.62613517 82.69777271 240.62258911 86.4720459 C240.61331686 93.59733956 240.58876942 100.72249281 240.55854064 107.84772503 C240.52484523 115.96879426 240.50847282 124.08987069 240.49345434 132.21099257 C240.46221471 148.89655202 240.40954956 165.58197078 240.34248352 182.26742554 C241.27363322 182.26373837 242.20478292 182.26005119 243.16414928 182.25625229 C265.85927341 182.16730998 288.55437483 182.10165426 311.24963665 182.06017685 C322.22506608 182.03958366 333.20038012 182.0115252 344.17573547 181.96566772 C353.74592523 181.92570053 363.31603139 181.89996917 372.88630229 181.89107156 C377.95001983 181.88587353 383.01349827 181.87372421 388.0771389 181.84450531 C392.85172072 181.81717985 397.62596691 181.80901489 402.40061951 181.81499481 C404.14480226 181.81390219 405.88899726 181.80605098 407.63311195 181.79060364 C423.95896782 181.65320665 438.2645333 184.45851569 450.59248352 196.01742554 C460.41107083 206.45091428 463.81127742 217.85260909 463.73016357 231.93212891 C463.73824188 233.63319449 463.73824188 233.63319449 463.74648339 235.36862504 C463.76072598 239.14701581 463.75366822 242.92505442 463.74653625 246.70346069 C463.75060026 249.42099408 463.75910644 252.13850979 463.76733398 254.85603333 C463.78448202 261.45744799 463.78537061 268.05876732 463.78012108 274.66019846 C463.77607194 280.02651067 463.77753175 285.3927948 463.78286934 290.75910568 C463.78361776 291.52421606 463.78436618 292.28932644 463.78513728 293.07762199 C463.78666882 294.63212981 463.78820717 296.18663761 463.78975225 297.74114542 C463.80346194 312.29956309 463.7980496 326.85792694 463.78656704 341.41634338 C463.77662851 354.72816777 463.78958872 368.03985329 463.81350123 381.35165627 C463.83789394 395.03421609 463.84750016 408.71671123 463.84084851 422.39929235 C463.83735766 430.07555837 463.83957985 437.75171752 463.85709953 445.42796707 C463.87182335 451.95989953 463.87245431 458.49164977 463.85502862 465.02357866 C463.84651886 468.35436655 463.84653776 471.68456179 463.85968018 475.01537514 C463.8728519 478.62945429 463.86137498 482.24264848 463.84368896 485.85668945 C463.85329397 486.9043582 463.86289898 487.95202695 463.87279505 489.03144324 C463.79960652 496.29983111 462.53636591 502.03676139 457.30732727 507.32601929 C456.63830383 507.78105835 455.9692804 508.23609741 455.27998352 508.70492554 C454.60838196 509.17801147 453.9367804 509.65109741 453.24482727 510.13851929 C449.43938907 512.39677728 445.99842983 512.52033948 441.65498352 512.64242554 C440.47549133 512.69140991 439.29599915 512.74039429 438.08076477 512.79086304 C430.05800238 511.66750864 424.05091686 505.59060014 418.02998352 500.51742554 C417.28869202 499.90125366 416.54740051 499.28508179 415.78364563 498.65023804 C412.55915168 495.9694108 409.34791168 493.27341739 406.14717102 490.56430054 C396.36900134 482.37403875 387.49426547 476.01955925 374.28617859 476.01586914 C373.61150028 476.012899 372.93682197 476.00992886 372.24169886 476.00686872 C369.99965181 475.99928092 367.75787082 476.00570118 365.51582336 476.01205444 C363.90043461 476.00930198 362.28504721 476.00562053 360.66966248 476.00108337 C357.19882248 475.9929902 353.72804683 475.99079824 350.25719833 475.99303055 C344.75860627 475.99587293 339.26014174 475.98147581 333.76158142 475.96405029 C318.1282493 475.91711588 302.49492597 475.89309698 286.86152649 475.88656616 C278.2210862 475.88280436 269.5807905 475.86468454 260.94041216 475.8314718 C255.48544725 475.8113567 250.0308578 475.80883899 244.57587123 475.81975198 C241.16631387 475.82237693 237.75697073 475.80826842 234.34746933 475.78967094 C232.77907598 475.78439156 231.21064211 475.78577194 229.64226532 475.79470634 C214.23264567 475.87533319 200.8370695 472.83892677 189.09248352 462.23617554 C177.13131069 449.73131304 175.03397783 435.92553764 175.11543274 419.39633179 C175.11599751 417.78926094 175.11567901 416.18218957 175.11454773 414.57511902 C175.11397579 410.23064432 175.12570432 405.8862809 175.13969564 401.54183197 C175.15222954 396.99480255 175.1533756 392.44777035 175.15574646 387.90072632 C175.16195342 379.29842978 175.17835362 370.69618431 175.19844544 362.09391022 C175.22082885 352.29706216 175.23180401 342.50021162 175.24183631 332.70334435 C175.26272055 312.55800962 175.29788127 292.4127208 175.34248352 272.26742554 C157.78288119 272.32805755 140.2234453 272.405626 122.664011 272.50314045 C114.51013612 272.54803089 106.35630425 272.58746098 98.2023468 272.61386108 C91.09209945 272.63689601 83.98198902 272.670355 76.87185037 272.7161271 C73.11002307 272.73998556 69.34833073 272.75876248 65.5864296 272.76503944 C62.03884755 272.77112395 58.49161051 272.79124358 54.94415665 272.82170105 C53.03528621 272.83455958 51.12633494 272.83292058 49.21742249 272.83070374 C32.4022616 273.01275721 22.81791296 279.97501413 10.53779602 290.53305054 C-15.72069904 313.09382526 -15.72069904 313.09382526 -26.65751648 313.26742554 C-33.99606803 312.48514339 -39.4642184 309.91987598 -44.40751648 304.32992554 C-48.86305181 298.26544689 -48.948186 293.33284916 -48.92494202 286.02815247 C-48.92947313 284.98695773 -48.93400424 283.94576299 -48.93867266 282.87301689 C-48.9513484 279.3787091 -48.9496942 275.88455654 -48.94804382 272.39022827 C-48.95402723 269.88682352 -48.96083234 267.38342061 -48.96839905 264.88002014 C-48.98425056 258.78125309 -48.9905085 252.68254722 -48.9916238 246.58376526 C-48.99257485 241.62307387 -48.99668797 236.66239521 -49.00302505 231.70170784 C-49.02063957 217.6256228 -49.02986407 203.54956825 -49.02836411 189.47347211 C-49.02828419 188.71478094 -49.02820428 187.95608977 -49.02812195 187.17440796 C-49.02804019 186.41478581 -49.02795843 185.65516366 -49.02787419 184.87252266 C-49.02706213 172.57509474 -49.0461789 160.27778955 -49.07439868 147.9803971 C-49.1031708 135.34211344 -49.11693647 122.70388954 -49.11521113 110.06557232 C-49.11454852 102.97483423 -49.11998332 95.88422466 -49.14156723 88.79351616 C-49.16175255 82.11958876 -49.16106115 75.44597688 -49.14653397 68.77202034 C-49.14444683 66.32757801 -49.14914099 63.88311865 -49.16125488 61.43870544 C-49.271141 37.72146309 -49.271141 37.72146309 -44.65751648 28.26742554 C-44.13931335 27.19105835 -43.62111023 26.11469116 -43.08720398 25.00570679 C-33.29056631 9.71999826 -18.42559332 -0.07309435 0 0 Z M-19.48173523 32.26351929 C-24.87499151 39.17158847 -25.95133882 44.58159227 -25.89802551 53.20780945 C-25.89973436 54.21663545 -25.90144321 55.22546146 -25.90320385 56.26485795 C-25.90650101 59.64900522 -25.89549117 63.0329547 -25.88456726 66.41708374 C-25.8840032 68.8414357 -25.88431961 71.26578801 -25.88545227 73.69013977 C-25.88590787 78.91153695 -25.88023093 84.13288932 -25.86897659 89.35427284 C-25.85271536 96.90349181 -25.84751295 104.45268662 -25.84500061 112.0019212 C-25.84062449 124.25034846 -25.82731762 136.49874907 -25.80839539 148.74716187 C-25.79003445 160.64462145 -25.77587899 172.54207379 -25.76737976 184.43954468 C-25.76685431 185.17303197 -25.76632887 185.90651927 -25.7657875 186.66223345 C-25.7631774 190.34196176 -25.76064999 194.02169012 -25.75816369 197.70141852 C-25.73743376 228.22343994 -25.70206169 258.74542904 -25.65751648 289.26742554 C-24.38867114 288.32275147 -23.12079355 287.37677747 -21.85331726 286.43026733 C-21.14716278 285.90361984 -20.4410083 285.37697235 -19.7134552 284.83436584 C-16.89026966 282.68266591 -14.22041702 280.39938018 -11.53251648 278.07992554 C21.18822774 250.16125126 21.18822774 250.16125126 43.95704651 250.13612366 C45.27186508 250.13211548 46.58668365 250.1281073 47.94134521 250.12397766 C49.38658144 250.12445268 50.83181765 250.12498878 52.27705383 250.12557983 C53.80849304 250.12254563 55.33993135 250.11902346 56.87136841 250.11505127 C60.16323699 250.10718149 63.45509483 250.10202459 66.74697113 250.0987606 C71.95899745 250.09283191 77.17095616 250.07627371 82.38294983 250.05741882 C84.17016979 250.05108194 85.95738979 250.04475631 87.74460983 250.03844166 C88.6394897 250.03527585 89.53436957 250.03211004 90.45636702 250.02884829 C102.5842468 249.98683803 114.71209439 249.9538034 126.84004211 249.9414978 C135.02926115 249.93310346 143.21831182 249.91056374 151.40744662 249.87214214 C155.73597051 249.85243115 160.06424302 249.83996045 164.39281464 249.84497643 C168.4674472 249.84964093 172.5416037 249.8357199 176.61614037 249.80796432 C178.10515721 249.80108329 179.59422361 249.8008925 181.0832386 249.8081646 C190.89445783 249.85121412 199.55831181 249.06812855 207.65498352 243.01742554 C215.10560813 235.39353059 217.58618562 227.26677453 217.60317993 216.69104004 C217.60700548 215.97255508 217.61083103 215.25407013 217.6147725 214.5138129 C217.62501095 212.12968666 217.62112797 209.7458054 217.61714172 207.36166382 C217.62149329 205.64273864 217.62667791 203.9238154 217.63262939 202.20489502 C217.64598306 197.55193116 217.6466021 192.89904871 217.6440661 188.24606943 C217.64299388 184.35457996 217.64788616 180.46310679 217.65267152 176.57162082 C217.66375421 167.38703934 217.66421112 158.20249875 217.65815735 149.01791382 C217.65211835 139.55893183 217.66442954 130.10009862 217.68572742 120.64114201 C217.70336978 112.50500103 217.70934061 104.3689073 217.70608968 96.23274791 C217.70428083 91.38001957 217.70687312 86.52739736 217.72080421 81.67468643 C217.73342082 77.1093159 217.73140233 72.54417652 217.71839333 67.97880936 C217.7160363 66.30916769 217.7187307 64.63950955 217.72701645 62.96988678 C217.78345424 50.70736629 217.41656354 39.50000477 208.34248352 30.26742554 C197.55532245 20.96814875 184.59439003 21.97511264 171.10810852 22.00863647 C169.27066408 22.00592277 167.43322073 22.00235972 165.59577942 21.99801636 C160.62888904 21.98893522 155.66208218 21.99241892 150.69519043 21.99877453 C145.48419478 22.00385671 140.27320603 21.99913692 135.06221008 21.9960022 C126.31317366 21.99236901 117.56417106 21.99714466 108.81513977 22.00668335 C98.7165366 22.01756664 88.61801421 22.0140406 78.51941299 22.00303054 C69.83122189 21.99393922 61.14305502 21.99268141 52.45486069 21.99790788 C47.27354866 22.00101743 42.09227453 22.00146487 36.91096497 21.9948349 C32.0386377 21.9890352 27.16641404 21.99310619 22.2940979 22.00462341 C20.51157808 22.007256 18.72904946 22.00652901 16.9465332 22.00209808 C-3.14879794 21.71607378 -3.14879794 21.71607378 -19.48173523 32.26351929 Z M240.34248352 205.26742554 C240.32102768 205.85808304 240.29957184 206.44874054 240.27746582 207.05729675 C240.17458658 209.77999667 240.06132847 212.50217455 239.94795227 215.22445679 C239.89761841 216.61767151 239.89761841 216.61767151 239.8462677 218.03903198 C239.30728043 230.52876247 236.84139674 242.01300615 229.34248352 252.26742554 C228.59998352 253.31930054 227.85748352 254.37117554 227.09248352 255.45492554 C219.21816175 263.50820916 209.26208934 268.64148571 198.34248352 271.26742554 C198.27235979 292.12102821 198.21947884 312.97461139 198.187047 333.82830811 C198.17158717 343.5113418 198.15051452 353.19430218 198.11616516 362.87728882 C198.08623578 371.31833032 198.06690209 379.75931871 198.06021804 388.2004118 C198.05631178 392.66868859 198.04714992 397.13681346 198.02529335 401.6050415 C198.00487227 405.81406127 197.99866105 410.02286708 198.00316048 414.23193169 C198.00233779 415.7734131 197.99640563 417.31490196 197.9848671 418.85634041 C197.91312158 428.9387025 198.02666099 437.88911894 205.44232559 445.54129982 C213.61858341 452.96870818 222.94612841 452.97613505 233.40205383 452.87924194 C235.00641497 452.88278892 236.61077248 452.88857317 238.21511841 452.89640808 C241.65331566 452.90853315 245.09101554 452.90518334 248.52919769 452.88957596 C253.97798462 452.8651251 259.42634211 452.8768099 264.87513733 452.89324951 C274.48376001 452.91769209 284.09218519 452.91196549 293.70082092 452.89944458 C308.14773959 452.88084627 322.5946191 452.88587363 337.04151034 452.91947877 C342.44517931 452.93091747 347.84853073 452.92665651 353.25218153 452.9094584 C356.63004224 452.90149555 360.00781286 452.90585285 363.38567162 452.91316795 C364.93753614 452.91397024 366.48941393 452.90972992 368.04124641 452.89972496 C388.7470102 452.77282331 403.46478319 457.6239033 418.99092102 471.34555054 C422.52034841 474.46086406 426.19324834 477.37344796 429.90498352 480.26742554 C430.48884827 480.72407593 431.07271301 481.18072632 431.67427063 481.6512146 C434.54165129 483.8868421 437.43068865 486.09014808 440.34248352 488.26742554 C440.43405648 454.64418787 440.50453108 421.02098124 440.54674484 387.39764655 C440.55174761 383.42731877 440.55692491 379.45699123 440.56221008 375.48666382 C440.56378395 374.30104217 440.56378395 374.30104217 440.5653896 373.09146857 C440.58279069 360.29634577 440.61432674 347.50129492 440.6510947 334.70621479 C440.68851239 321.57543655 440.71072112 308.44469598 440.7188375 295.31386662 C440.72432357 287.21264423 440.74164529 279.11162522 440.77414939 271.01046544 C440.7978102 264.79649484 440.80030126 258.58267901 440.79491425 252.36866951 C440.79601509 249.82095144 440.80397698 247.27322571 440.81930542 244.72555351 C440.83921047 241.24671465 440.83441981 237.76874552 440.82350159 234.28988647 C440.84097864 232.77818862 440.84097864 232.77818862 440.85880876 231.23595142 C440.79701864 223.95051122 439.23298864 218.63471501 434.44795227 213.06039429 C433.81502258 212.5305896 433.1820929 212.00078491 432.52998352 211.45492554 C431.90478821 210.91223022 431.2795929 210.36953491 430.63545227 209.81039429 C425.08279987 206.07394165 420.26581772 204.82185971 413.62924194 204.90666199 C412.88413799 204.90409871 412.13903404 204.90153544 411.37135118 204.89889449 C408.891533 204.8939797 406.41233287 204.91041079 403.93257141 204.92684937 C402.14831049 204.92769614 400.36404852 204.92721951 398.57978821 204.92552185 C393.74762014 204.92466244 388.91567627 204.94227957 384.08356023 204.96324372 C379.02937159 204.98201942 373.9751776 204.98376167 368.92095947 204.98731995 C359.35529035 204.99663778 349.7897243 205.02124806 340.22410053 205.05136842 C329.33177787 205.08492054 318.43945023 205.10140049 307.54708874 205.11645472 C285.14549656 205.14779781 262.74399582 205.20055326 240.34248352 205.26742554 Z " fill="#000000" transform="translate(48.65751647949219,-0.267425537109375)"/>
<path d="M0 0 C1.5056301 -0.01143435 3.01122248 -0.03174815 4.51660156 -0.06152344 C23.46755641 -0.43507491 39.42688395 3.70978972 53.62890625 16.97827148 C65.26750765 28.33496905 71.54633581 42.1920933 72.8449707 58.29516602 C73.58102539 58.40860352 74.31708008 58.52204102 75.07543945 58.63891602 C83.34624603 60.59871221 90.07521165 67.56138853 94.8449707 74.29516602 C101.35133873 86.93181144 102.08271803 103.9691767 98.6574707 117.67016602 C97.07304818 122.3337493 94.73155099 126.32497987 91.8449707 130.29516602 C91.2674707 131.16141602 90.6899707 132.02766602 90.0949707 132.92016602 C85.96974357 137.27457244 80.82652195 141.15323351 74.8449707 142.29516602 C74.5046582 143.99672852 74.5046582 143.99672852 74.1574707 145.73266602 C71.53981604 155.9164184 65.18829069 164.20238028 56.35668945 169.90063477 C46.54830029 175.10228438 37.23987213 175.57782647 26.2824707 175.42016602 C25.08299805 175.41114258 23.88352539 175.40211914 22.64770508 175.39282227 C19.71324762 175.36944013 16.77921836 175.33666881 13.8449707 175.29516602 C13.88106445 176.55586914 13.9171582 177.81657227 13.9543457 179.11547852 C14.04868251 182.41052855 13.90008886 183.20461475 12.0949707 186.17016602 C9.42257552 188.6940948 7.37374843 190.16389351 3.66137695 190.48266602 C-0.58382457 190.12951234 -3.30535724 189.7600149 -6.1550293 186.42016602 C-9.07291491 181.86096974 -9.32554574 178.28075567 -9.3581543 173.02954102 C-9.36385437 172.31791809 -9.36955444 171.60629517 -9.37542725 170.87310791 C-9.38486695 169.36683636 -9.39140714 167.86054424 -9.39526367 166.35424805 C-9.40493589 164.06725225 -9.43595343 161.78116847 -9.4675293 159.49438477 C-9.47406338 158.02694215 -9.47931226 156.55949315 -9.4831543 155.09204102 C-9.5016745 154.07759918 -9.5016745 154.07759918 -9.52056885 153.04266357 C-9.49455861 147.40507506 -8.32050818 142.49666118 -4.27612305 138.38500977 C-0.38512543 136.3857679 3.59526156 136.65564668 7.8449707 137.29516602 C10.77920266 139.09163456 12.31702425 140.23927312 13.8449707 143.29516602 C13.91447612 144.83540598 13.92949428 146.37851589 13.9074707 147.92016602 C13.89844727 148.73743164 13.88942383 149.55469727 13.88012695 150.39672852 C13.86852539 151.02321289 13.85692383 151.64969727 13.8449707 152.29516602 C17.6999664 152.21373829 21.55344346 152.10094247 25.4074707 151.98266602 C26.49350586 151.96010742 27.57954102 151.93754883 28.69848633 151.91430664 C35.5085222 151.68661547 41.34340631 151.45811759 46.62231445 146.68969727 C47.00516602 146.16762695 47.38801758 145.64555664 47.7824707 145.10766602 C48.4630957 144.17954102 49.1437207 143.25141602 49.8449707 142.29516602 C48.6074707 142.07860352 48.6074707 142.07860352 47.3449707 141.85766602 C41.0839429 139.06256432 37.04375227 133.9574862 34.25756836 127.76977539 C32.47637393 122.85571999 32.39468577 118.20515623 32.41137695 113.02172852 C32.4061351 112.05794281 32.40089325 111.0941571 32.39549255 110.10116577 C32.38910007 108.07241779 32.39037319 106.0436326 32.39892578 104.01489258 C32.40742765 100.93576009 32.37864783 97.85849039 32.34692383 94.77954102 C32.34531117 92.79777073 32.34589059 90.81599721 32.34887695 88.83422852 C32.33764297 87.92661774 32.326409 87.01900696 32.31483459 86.08389282 C32.41411491 76.83041318 35.26647173 68.87366499 41.8449707 62.29516602 C44.12063623 60.50782038 46.43341353 58.9028708 48.8449707 57.29516602 C45.91007178 45.50088277 41.11042002 36.23757298 30.8449707 29.29516602 C22.21461059 24.72356609 15.04927652 24.05709636 5.33007812 24 C3.97743206 23.9885492 2.62482869 23.96820796 1.27246094 23.93847656 C-12.74788545 23.6308847 -22.85622959 26.404504 -33.0612793 36.10766602 C-38.61359253 41.94230026 -41.33611999 48.52022033 -43.1550293 56.29516602 C-42.56334961 56.65868164 -41.97166992 57.02219727 -41.36206055 57.39672852 C-34.84417238 61.54350892 -29.42149257 65.55141649 -27.1550293 73.29516602 C-26.21791503 78.69818214 -25.99458908 83.91457869 -25.98706055 89.37719727 C-25.98206795 90.65852791 -25.98206795 90.65852791 -25.97697449 91.96574402 C-25.97193519 93.76508042 -25.96956523 95.56442608 -25.96972656 97.36376953 C-25.96754416 100.08910844 -25.9493676 102.81403936 -25.93041992 105.53930664 C-25.85086884 129.76642987 -25.85086884 129.76642987 -33.69018555 137.88500977 C-39.1137068 142.93790314 -44.53713339 145.38799908 -51.9675293 145.67016602 C-64.66290294 145.20356729 -75.61341294 139.80618483 -84.33081055 130.64672852 C-91.67549829 121.1788441 -93.3621296 112.30555319 -93.4675293 100.73266602 C-93.4965332 99.69819336 -93.52553711 98.6637207 -93.55541992 97.59790039 C-93.65071604 85.89113841 -90.1261715 76.86790385 -82.1550293 68.29516602 C-72.91870545 59.29516602 -72.91870545 59.29516602 -67.1550293 59.29516602 C-67.13375977 58.34770508 -67.13375977 58.34770508 -67.11206055 57.38110352 C-66.20994883 40.46041344 -58.28945929 26.45038138 -46.25268555 14.87719727 C-32.74399666 3.10140142 -17.43577658 0.09171799 0 0 Z M-65.6706543 84.79125977 C-69.96955394 89.74487689 -70.35920757 93.7899956 -70.4050293 100.10766602 C-70.4256543 100.80698242 -70.4462793 101.50629883 -70.4675293 102.22680664 C-70.51004558 107.90804551 -69.32972838 111.88341442 -65.5065918 116.12329102 C-59.70261616 121.03825016 -59.70261616 121.03825016 -52.4050293 122.04516602 C-51.6625293 121.79766602 -50.9200293 121.55016602 -50.1550293 121.29516602 C-48.52445973 118.03402688 -49.01331407 114.44037285 -49.0222168 110.85766602 C-49.02126007 110.02178955 -49.02030334 109.18591309 -49.01931763 108.32470703 C-49.01863662 106.5560702 -49.02048539 104.78743087 -49.0246582 103.01879883 C-49.03000758 100.30617681 -49.02471055 97.59372037 -49.01831055 94.88110352 C-49.01897134 93.16495732 -49.02025253 91.44881122 -49.0222168 89.73266602 C-49.02019257 88.91805908 -49.01816833 88.10345215 -49.01608276 87.26416016 C-48.92912104 83.14757439 -48.92912104 83.14757439 -50.1550293 79.29516602 C-56.60895715 78.76831476 -61.10660568 80.28602621 -65.6706543 84.79125977 Z M57.8449707 79.29516602 C55.31612858 83.0884292 55.52151357 86.17767918 55.5090332 90.57641602 C55.5023764 91.38630981 55.4957196 92.19620361 55.48886108 93.03063965 C55.47874163 94.74200164 55.47404385 96.45340304 55.47436523 98.16479492 C55.46998646 100.78573291 55.43364666 103.40499415 55.39575195 106.02563477 C55.38988477 107.68838942 55.38591472 109.35115208 55.3840332 111.01391602 C55.36966217 111.79835083 55.35529114 112.58278564 55.34048462 113.39099121 C55.36206065 117.75725836 55.36206065 117.75725836 57.6628418 121.31665039 C61.05401482 122.83732856 63.29566774 122.2130892 66.8449707 121.29516602 C72.47223072 118.53670522 74.76978736 115.01439348 76.8449707 109.29516602 C77.34787945 106.22725559 77.36355766 103.27239611 77.2824707 100.17016602 C77.28956055 99.39801758 77.29665039 98.62586914 77.30395508 97.83032227 C77.2419393 92.22982062 76.26880276 87.89168839 72.30981445 83.65063477 C67.54962208 79.9954566 67.54962208 79.9954566 61.8449707 79.04516602 C60.7930957 79.00649414 60.7930957 79.00649414 59.7199707 78.96704102 C59.1012207 79.07532227 58.4824707 79.18360352 57.8449707 79.29516602 Z " fill="#32CCCC" transform="translate(365.155029296875,234.704833984375)"/>
<path d="M0 0 C0.61617188 0.47824219 1.23234375 0.95648438 1.8671875 1.44921875 C10.42177887 8.99626936 15.20874838 21.19366251 16.2109375 32.34765625 C16.71872996 44.67138866 12.75099148 55.84731953 4.8125 65.125 C-2.00461053 72.38840255 -8.60289641 76.06150442 -18 79 C-17.98428955 79.60473145 -17.9685791 80.20946289 -17.95239258 80.83251953 C-17.8896812 83.59658296 -17.85089589 86.36049621 -17.8125 89.125 C-17.78736328 90.07632813 -17.76222656 91.02765625 -17.73632812 92.0078125 C-17.67033981 98.34269092 -18.14241676 103.04036021 -22.75 107.8125 C-25.91529548 109.48307261 -28.42467732 109.87671301 -32 110 C-36.20835591 108.46233149 -38.8097483 106.91692253 -41 103 C-41.2930535 100.08365685 -41.42070407 97.38719528 -41.3984375 94.47265625 C-41.40130768 93.6467247 -41.40417786 92.82079315 -41.40713501 91.96983337 C-41.40917339 90.22573154 -41.4036593 88.48160673 -41.39111328 86.73754883 C-41.37507626 84.07516019 -41.39095845 81.41429423 -41.41015625 78.75195312 C-41.40817338 77.05468416 -41.40432879 75.35741615 -41.3984375 73.66015625 C-41.40754654 72.4708828 -41.40754654 72.4708828 -41.4168396 71.25758362 C-41.35894443 66.6811833 -40.91762527 63.74219106 -38 60 C-34.84151099 57.83457303 -31.34109487 57.36128919 -27.625 56.625 C-19.54048823 54.80734131 -14.83279282 51.8464565 -10 45 C-7.37127282 38.78664484 -7.39381555 32.30257699 -9.75390625 25.98046875 C-12.84808967 20.03808302 -17.20632904 16.48662013 -23.3125 14.125 C-28.91893908 12.48822081 -33.85679337 12.55100404 -39.203125 15.015625 C-45.13401881 18.48629619 -48.68950733 22.48516821 -51 29 C-51.33069512 30.82669683 -51.62187226 32.66094946 -51.875 34.5 C-52.63948497 39.00196703 -53.57266393 41.78687244 -57 45 C-60.69725375 46.84862688 -64.96461442 46.47587094 -69 46 C-71.93423195 44.20353146 -73.47205355 43.0558929 -75 40 C-76.08052389 27.13999433 -73.73182897 16.59160805 -65.90234375 6.24609375 C-58.15322318 -2.90327858 -47.83793381 -9.14294305 -35.84765625 -10.81640625 C-22.29592796 -11.69011164 -10.69809861 -8.3591607 0 0 Z " fill="#000000" transform="translate(140,67)"/>
<path d="M0 0 C3.09988711 2.43614658 4.75232468 5.25697404 6 9 C6.10720914 12.02670123 6.1572763 15.03071077 6.16113281 18.05786133 C6.16609772 18.98500443 6.17106262 19.91214752 6.17617798 20.86738586 C6.1907999 23.93894184 6.19760177 27.01044617 6.203125 30.08203125 C6.20887656 32.21571352 6.21463429 34.34939577 6.22039795 36.483078 C6.23090811 40.95950563 6.23675064 45.43591529 6.24023438 49.91235352 C6.24571822 55.64571007 6.26974397 61.37882904 6.29820633 67.11211109 C6.31683892 71.52077424 6.32203865 75.92938025 6.32357025 80.33807945 C6.32659604 82.45156846 6.33462208 84.56505648 6.34775543 86.67850685 C6.36482818 89.63717293 6.36293252 92.5952596 6.35644531 95.55395508 C6.3656601 96.42534119 6.37487488 97.29672729 6.3843689 98.19451904 C6.34431158 104.03263744 5.47007696 108.44170601 1.25 112.8125 C-1.91529548 114.48307261 -4.42467732 114.87671301 -8 115 C-12.20454706 113.46372319 -14.86026487 111.94522334 -17 108 C-17.45508668 104.75642439 -17.41985931 101.53286369 -17.40405273 98.26196289 C-17.41091599 97.27454605 -17.41777924 96.28712921 -17.42485046 95.26979065 C-17.44316025 92.00393314 -17.43927489 88.7385541 -17.43359375 85.47265625 C-17.43815357 83.20348453 -17.44345855 80.93431419 -17.44947815 78.66514587 C-17.45841751 73.90797314 -17.45597669 69.15096821 -17.44604492 64.39379883 C-17.43455505 58.29593215 -17.45476331 52.19864452 -17.48396206 46.10085392 C-17.5023037 41.41426409 -17.50203561 36.72781353 -17.49632454 32.04119682 C-17.49617107 29.79291408 -17.5022363 27.54462204 -17.51461601 25.29637337 C-17.52948509 22.15302277 -17.51887823 19.01074844 -17.50170898 15.86743164 C-17.51137695 14.93791687 -17.52104492 14.0084021 -17.53100586 13.05072021 C-17.48282952 8.84092688 -17.37765833 6.60064668 -15.0919342 2.96531677 C-10.40121681 -1.44148797 -6.09109682 -1.8892172 0 0 Z " fill="#000000" transform="translate(208,62)"/>
<path d="M0 0 C3.6578218 2.03993908 5.66946174 3.50419262 8 7 C8.85660217 10.84333896 8.90177152 14.44730185 6.890625 17.91015625 C5.03489768 20.07364032 3.05417933 22.02227071 1 24 C-0.09909857 25.11579288 -1.1952244 26.23451843 -2.2890625 27.35546875 C-12.87365152 38.13882249 -12.87365152 38.13882249 -18.3125 38.3125 C-21.73514671 38.27398147 -22.89668795 38.06154761 -25.9375 36.25 C-28.32328829 33.64732187 -29.77804803 31.52111081 -30.29296875 27.9921875 C-29.90565885 20.21729992 -25.33271977 16.23178501 -20 11 C-19.28585938 10.23945313 -18.57171875 9.47890625 -17.8359375 8.6953125 C-12.70603049 3.28811322 -7.93603706 -1.15733874 0 0 Z " fill="#32CCCC" transform="translate(130,361)"/>
<path d="M0 0 C3.61725017 2.15495755 5.3991928 4.16089601 7 8 C7.65006905 12.45513986 6.80918087 15.86186951 4.203125 19.52734375 C1.88736012 22.11860479 -0.51951873 24.56646791 -3 27 C-3.71414063 27.76054688 -4.42828125 28.52109375 -5.1640625 29.3046875 C-13.25883825 37.8370187 -13.25883825 37.8370187 -18.97265625 38.0859375 C-23.7101435 37.74944308 -26.61725125 36.48525628 -30 33 C-31.26758008 29.19725976 -31.81759645 25.92446298 -31 22 C-29.132787 18.88577902 -26.58601856 16.52743562 -24 14 C-22.90178149 12.8820367 -21.80558107 11.7620889 -20.7109375 10.640625 C-9.1242435 -1.15236985 -9.1242435 -1.15236985 0 0 Z " fill="#33CBCB" transform="translate(405,66)"/>
<path d="M0 0 C1.92682617 -0.0309375 1.92682617 -0.0309375 3.89257812 -0.0625 C5.13072266 -0.06765625 6.36886719 -0.0728125 7.64453125 -0.078125 C8.77866455 -0.0874707 9.91279785 -0.09681641 11.08129883 -0.10644531 C15.34100413 0.38236784 17.90535578 2.05627952 21 4.9375 C22.74457906 8.33483818 22.72510187 11.55306662 22.1875 15.25 C20.39256443 19.50116318 18.26235118 21.20701404 14.1875 23.25 C9.72602246 23.86088321 5.24899644 23.71367079 0.75 23.6875 C-0.46494141 23.70748047 -1.67988281 23.72746094 -2.93164062 23.74804688 C-14.07687439 23.7419399 -14.07687439 23.7419399 -18.8125 19.25 C-21.49371076 15.22818385 -21.62594335 11.97763609 -20.8125 7.25 C-15.97646497 -1.43328966 -8.84176692 0.03517361 0 0 Z " fill="#32CCCC" transform="translate(94.8125,315.75)"/>
<path d="M0 0 C1.76923828 -0.00580078 1.76923828 -0.00580078 3.57421875 -0.01171875 C4.79753906 -0.00011719 6.02085937 0.01148437 7.28125 0.0234375 C8.50457031 0.01183594 9.72789062 0.00023438 10.98828125 -0.01171875 C12.16777344 -0.00785156 13.34726562 -0.00398438 14.5625 0 C15.63564453 0.00338379 16.70878906 0.00676758 17.81445312 0.01025391 C21.94522619 0.55073524 24.53438027 2.2805543 27.59375 5.0234375 C29.46867512 8.77328774 29.55384442 12.30156067 28.78125 16.3984375 C26.84783451 19.96895959 24.69769101 22.09295716 20.78125 23.3984375 C16.32713002 23.66039786 11.8672393 23.62988869 7.40625 23.6484375 C6.17390625 23.6690625 4.9415625 23.6896875 3.671875 23.7109375 C1.88910156 23.71867187 1.88910156 23.71867187 0.0703125 23.7265625 C-1.55849854 23.74058105 -1.55849854 23.74058105 -3.22021484 23.75488281 C-7.64239703 23.2292041 -10.25929786 21.58948154 -13.03125 18.1484375 C-14.54982326 14.63174153 -14.62593483 12.19882923 -14.21875 8.3984375 C-11.40428925 1.88073892 -6.84060456 0.02156947 0 0 Z " fill="#32CCCC" transform="translate(409.21875,125.6015625)"/>
<path d="M0 0 C5.30355064 5.45508066 4.5213908 12.04725152 4.5 19.1875 C4.51611328 20.25935547 4.53222656 21.33121094 4.54882812 22.43554688 C4.55232917 28.08973073 4.49987464 32.43057339 1.1875 37.25 C-1.38371037 39.58202801 -3.26771158 41.12581113 -6.8046875 41.41015625 C-11.53021451 41.04459661 -14.40087216 39.66162784 -17.8125 36.25 C-19.95318035 31.9686393 -19.08056725 26.30863536 -19.10766602 21.55639648 C-19.12485234 19.45554948 -19.16873599 17.35628799 -19.21289062 15.25585938 C-19.22302052 13.91407405 -19.2315357 12.57227536 -19.23828125 11.23046875 C-19.25286377 10.01254639 -19.26744629 8.79462402 -19.2824707 7.53979492 C-18.72442487 3.63347411 -17.55313776 2.03170784 -14.8125 -0.75 C-9.73813048 -3.76719269 -4.91795929 -3.06006356 0 0 Z " fill="#32CCCC" transform="translate(347.8125,41.75)"/>
<path d="M0 0 C3.6578218 2.03993908 5.66946174 3.50419262 8 7 C8.4092771 11.24753961 8.37160402 15.50423973 8.37060547 19.76904297 C8.37497117 21.86118438 8.41127621 23.95120161 8.44921875 26.04296875 C8.45508899 27.38020115 8.459057 28.71744353 8.4609375 30.0546875 C8.46915527 31.26624512 8.47737305 32.47780273 8.48583984 33.72607422 C7.91053991 37.60284413 6.71566687 39.23134606 4 42 C1.41278967 43.40829593 -1.06328828 43.87946333 -4 44 C-8.58768235 42.64625767 -11.66985041 41.27194092 -14 37 C-15.54851645 31.99240695 -15.22416864 26.81710247 -15.25 21.625 C-15.270625 20.59632813 -15.29125 19.56765625 -15.3125 18.5078125 C-15.34623634 11.96296281 -14.81092381 7.39653293 -10.5 2.1875 C-7.2758259 -0.36497117 -3.9347863 -0.38576336 0 0 Z " fill="#32CCCC" transform="translate(175,382)"/>
<path d="M0 0 C3.39988873 0.05828381 5.13506863 0.25742872 8.25 1.75 C11.0633797 5.35464274 12.07577394 8.7509451 12.25 13.3125 C10.84986889 17.51289334 9.1686602 20.18522732 5.25 22.3125 C1.34272257 23.52809742 -0.501944 23.39238244 -4.4375 22.125 C-7.71707719 20.33051437 -8.87180793 19.42619895 -10.75 16.3125 C-11.4135265 12.9119267 -11.36221119 9.72102716 -10.75 6.3125 C-8.3125 3.25 -8.3125 3.25 -5.75 1.3125 C-4.10962605 -0.32787395 -2.25523159 0.06338669 0 0 Z " fill="#000000" transform="translate(201.75,193.6875)"/>
<path d="M0 0 C3.18407594 1.79104272 4.52721167 3.20485599 6.375 6.3125 C7.48573543 11.08866236 6.83117971 14.66417547 4.25 18.8125 C1.71920085 21.27299917 0.46683399 22.3066332 -3 23 C-7.56001839 22.67311696 -10.9745175 21.82538835 -14.5625 18.9375 C-16.55214076 14.87171235 -16.67790674 11.4467454 -16 7 C-12.68178532 -0.42648048 -7.43470901 -0.96199909 0 0 Z " fill="#000000" transform="translate(115,194)"/>
</svg>
